<svg xmlns="http://www.w3.org/2000/svg"  viewBox="0 0 50 50" width="50px" height="50px"><path d="M 9.8125 0 C 9.75 0.015625 9.683594 0.0351563 9.625 0.0625 C 9.625 0.0625 8.855469 0.414063 8.21875 1.25 C 7.582031 2.085938 7 3.4375 7 5.46875 C 7 8.949219 9.019531 11.683594 11.375 13.53125 C 12.257813 14.222656 13.175781 14.808594 14.09375 15.28125 C 13.5625 15.230469 13.035156 15.128906 12.5 14.875 C 12.179688 14.734375 11.8125 14.765625 11.523438 14.964844 C 11.238281 15.164063 11.074219 15.496094 11.09375 15.84375 C 11.367188 19.488281 13.566406 21.457031 15.78125 22.28125 C 16.492188 22.546875 17.140625 22.613281 17.8125 22.71875 C 17.65625 22.902344 17.429688 23.046875 17.3125 23.25 C 16.664063 24.351563 16.453125 25.578125 16.1875 26.875 C 15.660156 29.464844 15.042969 32.363281 11.4375 35.3125 C 11.195313 35.511719 11.058594 35.8125 11.074219 36.125 C 11.085938 36.4375 11.242188 36.726563 11.5 36.90625 C 11.816406 37.121094 12.089844 37.164063 12.375 37.21875 C 12.660156 37.273438 12.972656 37.300781 13.34375 37.3125 C 13.511719 37.320313 13.78125 37.285156 13.96875 37.28125 C 13.761719 37.527344 13.75 37.683594 13.46875 37.9375 C 12.621094 38.710938 11.535156 39.5 10.4375 40.1875 C 8.242188 41.5625 6.125 42.5625 6.125 42.5625 C 5.773438 42.726563 5.546875 43.082031 5.546875 43.46875 C 5.546875 43.855469 5.773438 44.210938 6.125 44.375 C 10.242188 46.332031 14.796875 46.335938 16.875 46.28125 C 16.449219 46.976563 15.902344 47.78125 15.375 48.25 C 15.058594 48.527344 14.953125 48.972656 15.105469 49.367188 C 15.257813 49.757813 15.640625 50.011719 16.0625 50 C 21.050781 50 25.199219 49.652344 28.3125 49.21875 C 31.425781 48.785156 33.398438 48.300781 34.34375 47.9375 C 34.738281 47.792969 35 47.417969 35 47 C 35 42.914063 33.289063 37.453125 32.375 34.9375 C 34.371094 34.859375 35.566406 34.359375 36.46875 33.90625 C 37.4375 33.421875 38.246094 33 40.71875 33 C 42.371094 33 43.660156 32.011719 44.53125 31 C 44.96875 30.492188 45.316406 29.953125 45.5625 29.46875 C 45.808594 28.984375 46 28.632813 46 28.0625 C 46 27.851563 45.941406 27.515625 45.78125 27.25 C 45.621094 26.984375 45.425781 26.8125 45.21875 26.65625 C 44.804688 26.339844 44.234375 26 43.21875 25.34375 C 41.457031 24.210938 37.101563 21.375 36.71875 21.125 C 36.675781 20.890625 36.714844 20.726563 36.5625 20.4375 C 36.269531 19.882813 35.695313 19.328125 34.84375 18.96875 C 38.175781 17.773438 41.527344 15.03125 42.875 10.5 C 42.882813 10.476563 42.898438 10.460938 42.90625 10.4375 C 42.921875 10.378906 42.953125 10.339844 42.96875 10.28125 C 43.167969 9.761719 42.910156 9.183594 42.390625 8.984375 C 41.871094 8.785156 41.292969 9.042969 41.09375 9.5625 C 40.992188 9.765625 40.035156 11.066406 38.65625 12.09375 C 37.277344 13.121094 35.476563 14 33.4375 14 C 32.800781 14 32.460938 13.863281 32.28125 13.75 C 32.101563 13.636719 32.027344 13.546875 31.9375 13.28125 C 31.757813 12.75 31.792969 11.667969 31.75 10.46875 C 31.707031 9.269531 31.515625 7.835938 30.46875 6.71875 C 29.421875 5.601563 27.679688 5 25 5 C 24.542969 4.992188 24.136719 5.300781 24.019531 5.742188 C 23.898438 6.1875 24.097656 6.652344 24.5 6.875 C 25.765625 7.601563 26.402344 8.199219 26.6875 8.65625 C 26.972656 9.113281 26.984375 9.449219 26.9375 9.9375 C 26.875 10.589844 26.710938 11.59375 26.78125 12.71875 C 25.820313 12.46875 24.695313 12.039063 23.71875 11.125 C 22.28125 9.785156 21.226563 7.75 21.96875 4.21875 C 22.058594 3.808594 21.878906 3.382813 21.523438 3.160156 C 21.164063 2.933594 20.707031 2.957031 20.375 3.21875 C 18.140625 5.042969 17.792969 7.523438 18.0625 9.34375 C 18.136719 9.855469 18.273438 10.207031 18.40625 10.625 C 17.988281 10.527344 17.769531 10.550781 17.28125 10.375 C 16.101563 9.953125 14.792969 9.308594 13.65625 8.46875 C 12.519531 7.628906 11.546875 6.605469 11.03125 5.4375 C 10.515625 4.269531 10.386719 2.957031 10.9375 1.3125 C 11.042969 0.992188 10.984375 0.644531 10.773438 0.378906 C 10.566406 0.113281 10.242188 -0.0273438 9.90625 0 C 9.875 0 9.84375 0 9.8125 0 Z M 9 5.34375 C 9.085938 5.640625 9.097656 5.972656 9.21875 6.25 C 9.917969 7.839844 11.105469 9.109375 12.4375 10.09375 C 13.769531 11.078125 15.257813 11.769531 16.59375 12.25 C 17.929688 12.730469 19.097656 13 20 13 C 20.351563 12.992188 20.675781 12.796875 20.847656 12.492188 C 21.023438 12.183594 21.019531 11.804688 20.84375 11.5 C 20.84375 11.5 20.234375 10.445313 20.03125 9.0625 C 20.003906 8.871094 20.074219 8.664063 20.0625 8.46875 C 20.472656 10.199219 21.289063 11.609375 22.34375 12.59375 C 24.222656 14.347656 26.496094 15 28 15 C 28.347656 14.996094 28.671875 14.8125 28.851563 14.511719 C 29.03125 14.210938 29.039063 13.839844 28.875 13.53125 C 28.292969 12.398438 28.792969 11.617188 28.9375 10.125 C 29.003906 9.433594 28.882813 8.589844 28.4375 7.78125 C 28.609375 7.894531 28.886719 7.972656 29 8.09375 C 29.535156 8.664063 29.710938 9.480469 29.75 10.53125 C 29.789063 11.582031 29.640625 12.75 30.03125 13.90625 C 30.226563 14.484375 30.621094 15.089844 31.21875 15.46875 C 31.816406 15.847656 32.554688 16 33.4375 16 C 34.941406 16 36.265625 15.601563 37.46875 15.0625 C 35.398438 16.78125 32.964844 17.6875 31.0625 17.6875 C 31 17.691406 30.9375 17.703125 30.875 17.71875 C 29.328125 17.371094 27.488281 17.101563 25.4375 17.0625 C 24.316406 15.847656 23.167969 15.09375 22 14.78125 C 20.75 14.445313 19.5625 14.5625 18.46875 14.75 C 16.984375 14.472656 14.570313 13.488281 12.59375 11.9375 C 10.546875 10.328125 9 8.183594 9 5.46875 C 9 5.414063 9 5.394531 9 5.34375 Z M 20.15625 16.5625 C 20.605469 16.554688 21.039063 16.605469 21.46875 16.71875 C 22.324219 16.949219 23.230469 17.460938 24.25 18.65625 C 24.4375 18.875 24.710938 19 25 19 C 29.246094 19 32.535156 20.171875 34.0625 20.8125 C 34.554688 21.019531 34.699219 21.21875 34.78125 21.375 C 34.863281 21.53125 34.871094 21.660156 34.875 21.8125 C 34.886719 22.144531 35.0625 22.449219 35.34375 22.625 C 35.34375 22.625 40.304688 25.839844 42.15625 27.03125 C 43.15625 27.675781 43.691406 28.035156 43.9375 28.21875 C 43.914063 28.289063 43.898438 28.332031 43.78125 28.5625 C 43.613281 28.894531 43.355469 29.3125 43.03125 29.6875 C 42.382813 30.4375 41.53125 31 40.71875 31 C 37.988281 31 36.585938 31.578125 35.5625 32.09375 C 34.539063 32.609375 33.980469 33 32 33 C 29.503906 33 28.035156 32.136719 27.125 31.28125 C 26.214844 30.425781 25.9375 29.65625 25.9375 29.65625 C 25.828125 29.300781 25.535156 29.035156 25.171875 28.964844 C 24.804688 28.894531 24.433594 29.03125 24.203125 29.320313 C 23.96875 29.609375 23.914063 30.003906 24.0625 30.34375 C 24.0625 30.34375 24.527344 31.574219 25.75 32.71875 C 26.671875 33.585938 28.242188 34.292969 30.15625 34.65625 C 30.730469 36.136719 32.648438 42.320313 32.875 46.21875 C 32.050781 46.46875 30.632813 46.855469 28.03125 47.21875 C 25.546875 47.566406 21.964844 47.777344 18.1875 47.875 C 18.9375 46.753906 19.5 45.71875 19.5 45.71875 C 19.640625 45.398438 19.609375 45.03125 19.410156 44.742188 C 19.210938 44.457031 18.878906 44.292969 18.53125 44.3125 C 18.53125 44.3125 13.328125 44.460938 9.0625 43.21875 C 9.921875 42.777344 10.25 42.65625 11.5 41.875 C 12.660156 41.148438 13.855469 40.3125 14.84375 39.40625 C 15.832031 38.5 16.664063 37.5625 16.9375 36.375 C 17.015625 36.050781 16.925781 35.710938 16.699219 35.464844 C 16.472656 35.222656 16.140625 35.105469 15.8125 35.15625 C 15.183594 35.242188 14.761719 35.230469 14.28125 35.25 C 16.890625 32.410156 17.707031 29.492188 18.15625 27.28125 C 18.425781 25.96875 18.644531 24.90625 19.03125 24.25 C 19.417969 23.59375 19.875 23.222656 21.15625 23 C 21.707031 22.957031 22.121094 22.472656 22.078125 21.921875 C 22.035156 21.371094 21.550781 20.957031 21 21 C 20.964844 21 20.882813 21 20.84375 21 C 19.925781 21.003906 18.125 21.054688 16.46875 20.4375 C 15.082031 19.921875 13.910156 19.027344 13.375 17.1875 C 15.269531 17.519531 17.03125 17.0625 18.53125 16.78125 C 18.703125 16.792969 18.875 16.761719 19.03125 16.6875 C 19.421875 16.628906 19.796875 16.566406 20.15625 16.5625 Z M 28.53125 22.59375 C 28.195313 23.832031 28.917969 25.101563 30.15625 25.4375 C 31.394531 25.773438 32.664063 25.019531 33 23.78125 Z"/></svg>